<?xml version="1.0" standalone="no"?>
<!DOCTYPE svg PUBLIC "-//W3C//DTD SVG 20010904//EN"
 "http://www.w3.org/TR/2001/REC-SVG-20010904/DTD/svg10.dtd">
<svg version="1.0" xmlns="http://www.w3.org/2000/svg"
 width="512.000000pt" height="512.000000pt" viewBox="0 0 512.000000 512.000000"
 preserveAspectRatio="xMidYMid meet">
<metadata>
Created by potrace 1.14, written by Peter Selinger 2001-2017
</metadata>
<g transform="translate(0.000000,512.000000) scale(0.100000,-0.100000)"
fill="#000000" stroke="none">
<path d="M2435 5114 c-183 -28 -385 -114 -499 -215 -28 -24 -41 -27 -126 -33
-220 -13 -384 -73 -557 -203 -244 -183 -388 -467 -396 -779 -2 -122 111 -199
219 -148 45 21 73 69 79 135 11 113 16 140 36 205 57 184 181 330 359 419 102
52 178 68 321 70 130 2 156 9 194 49 63 67 204 152 296 176 79 22 103 25 204
24 195 -2 346 -65 486 -204 128 -127 193 -268 205 -445 9 -120 46 -177 125
-194 72 -15 160 37 175 103 8 31 7 147 -1 176 -2 8 -7 34 -10 58 -9 61 -50
182 -86 255 -132 260 -373 456 -649 527 -83 21 -301 35 -375 24z"/>
<path d="M2457 4454 c-63 -22 -112 -53 -153 -96 -85 -90 -105 -155 -106 -336
0 -70 -1 -122 -3 -117 -38 143 -98 220 -215 274 -47 22 -68 26 -145 26 -77 -1
-98 -5 -145 -28 -31 -14 -74 -42 -96 -61 -49 -42 -99 -133 -111 -201 -5 -27
-9 -435 -8 -907 0 -471 -3 -854 -7 -851 -5 2 -8 10 -8 17 0 22 -50 110 -83
145 -87 92 -159 113 -382 116 -179 1 -214 -5 -235 -44 -7 -13 -10 -299 -10
-848 0 -784 1 -832 20 -904 25 -102 63 -190 115 -269 49 -74 69 -95 186 -200
46 -41 95 -86 108 -99 13 -13 45 -34 70 -47 l46 -23 1324 -1 1324 0 45 21 c36
18 56 39 104 113 78 119 158 285 202 416 73 218 69 162 73 1029 4 854 6 830
-52 921 -88 137 -257 201 -412 155 -104 -31 -207 -129 -238 -225 -7 -25 -14
-38 -15 -30 0 8 -2 53 -4 100 -4 105 -17 151 -65 220 -124 180 -377 209 -542
62 -41 -37 -80 -100 -106 -171 -5 -13 -9 305 -8 750 1 830 0 839 -50 924 -49
83 -112 135 -201 165 -65 23 -158 24 -217 4z"/>
</g>
</svg>
